<?xml version="1.0" encoding="UTF-8" standalone="no"?>
<!-- Created with Inkscape (http://www.inkscape.org/) -->

<svg
   width="105.41296mm"
   height="105.41296mm"
   viewBox="0 0 105.41296 105.41296"
   version="1.1"
   id="svg5"
   xml:space="preserve"
   xmlns:inkscape="http://www.inkscape.org/namespaces/inkscape"
   xmlns:sodipodi="http://sodipodi.sourceforge.net/DTD/sodipodi-0.dtd"
   xmlns="http://www.w3.org/2000/svg"
   xmlns:svg="http://www.w3.org/2000/svg"><sodipodi:namedview
     id="namedview7"
     pagecolor="#ffffff"
     bordercolor="#666666"
     borderopacity="1.0"
     inkscape:showpageshadow="2"
     inkscape:pageopacity="0.0"
     inkscape:pagecheckerboard="0"
     inkscape:deskcolor="#d1d1d1"
     inkscape:document-units="mm"
     showgrid="false" /><defs
     id="defs2" /><g
     inkscape:label="Camada 1"
     inkscape:groupmode="layer"
     id="layer1"
     transform="translate(-50.394239,-86.036649)"><path
       style="fill:#79d808;fill-opacity:1;fill-rule:evenodd;stroke:none;stroke-width:3.02974;stroke-linejoin:round"
       d="M 50.394239,138.74313 V 86.036652 h 52.706471 52.70648 V 138.74313 191.4496 H 103.10071 50.394239 Z M 96.114,172.37253 c 4.23459,-1.24457 7.57643,-3.35991 11.6533,-7.37637 5.69777,-5.61334 9.65096,-12.10111 9.7063,-15.92948 0.0378,-2.61451 -0.70017,-3.49157 -2.93782,-3.49157 -2.74498,0 -3.41964,0.76741 -7.91226,9 -2.94041,5.38822 -5.87031,8.5468 -9.870983,10.64142 -2.192345,1.14785 -3.284339,1.13498 -3.736763,-0.044 -0.432528,-1.12714 4.914992,-11.02061 9.195656,-17.01293 1.03733,-1.4521 4.58914,-6.92605 6.8744,-10.59463 3.17344,-5.09438 3.02567,-7.94697 -0.58043,-11.20487 -2.42066,-2.18692 -4.85032,-3.12508 -8.68132,-3.35211 -2.888176,-0.17116 -3.419271,-0.0926 -4.479748,0.66251 -2.741845,1.95237 -9.415428,18.83594 -12.091059,30.58931 -1.186833,5.21347 -1.040653,11.25615 0.336159,13.89587 2.245029,4.30431 6.897441,5.87073 12.524568,4.21688 z m 22.61829,-51.76617 c 3.47711,-1.79637 5.17077,-4.65514 4.9366,-8.33262 -0.21336,-3.35083 -1.52564,-5.34265 -4.46853,-6.78247 -5.15644,-2.52281 -11.52157,-1.42483 -14.5223,2.5051 -1.26662,1.65885 -1.37694,2.0287 -1.37694,4.61635 0,4.48526 1.9599,7.0443 6.54289,8.54303 2.35868,0.77135 6.87178,0.49238 8.88828,-0.54939 z"
       id="path517" /></g></svg>
